<?xml version="1.0" standalone="no"?>
<!DOCTYPE svg PUBLIC "-//W3C//DTD SVG 20010904//EN"
 "http://www.w3.org/TR/2001/REC-SVG-20010904/DTD/svg10.dtd">
<svg version="1.0" xmlns="http://www.w3.org/2000/svg"
 width="512.000000pt" height="512.000000pt" viewBox="0 0 512.000000 512.000000"
 preserveAspectRatio="xMidYMid meet">
<metadata>
Created by potrace 1.14, written by Peter Selinger 2001-2017
</metadata>
<g transform="translate(0.000000,512.000000) scale(0.100000,-0.100000)"
fill="#000000" stroke="none">
<path d="M2290 5111 c-27 -7 -38 -37 -21 -54 6 -6 11 -21 11 -34 0 -27 -25
-41 -148 -84 -103 -37 -129 -50 -202 -98 -30 -21 -102 -53 -160 -73 -58 -20
-126 -46 -153 -57 -26 -11 -49 -20 -52 -20 -3 -1 -58 -28 -123 -61 -622 -323
-1074 -884 -1252 -1553 -16 -62 -36 -152 -44 -202 -8 -49 -18 -106 -21 -125
-3 -19 -9 -125 -12 -235 -12 -416 66 -769 253 -1152 114 -233 271 -451 464
-643 129 -129 221 -207 330 -280 12 -8 40 -27 61 -42 21 -16 41 -28 44 -28 3
0 31 -16 61 -35 47 -30 166 -90 296 -149 64 -29 300 -105 373 -120 254 -53
313 -60 555 -60 224 -1 293 5 496 44 132 26 274 67 409 120 111 43 314 143
365 180 16 11 31 20 34 20 11 0 220 151 291 210 72 61 261 257 332 347 295
371 471 803 523 1290 12 109 9 423 -5 523 -42 307 -108 527 -240 795 -263 539
-729 969 -1290 1191 -95 37 -128 56 -160 88 -125 129 -307 226 -510 272 -5 1
-30 5 -55 9 -25 4 -56 10 -70 12 -44 8 -354 11 -380 4z"/>
</g>
</svg>
